<svg width="507" height="370" viewBox="0 0 507 370" fill="none" xmlns="http://www.w3.org/2000/svg">
<path d="M456.932 130.145H456.394C450.541 130.139 444.931 127.814 440.793 123.68C436.655 119.546 434.327 113.942 434.321 108.096V100.567H368.64V99.4913H435.397V108.096C435.404 113.563 437.545 118.813 441.365 122.728C445.185 126.644 450.384 128.916 455.855 129.063V99.4913H471.468C473.609 99.4889 475.661 98.6382 477.175 97.1259C478.689 95.6136 479.541 93.5631 479.543 91.4244V9.14244C479.541 7.00372 478.689 4.95329 477.175 3.44098C475.661 1.92868 473.609 1.078 471.468 1.07558H265.812C263.671 1.078 261.619 1.92868 260.105 3.44098C258.591 4.95329 257.739 7.00372 257.737 9.14244V68.8372H256.66V9.14244C256.663 6.71855 257.628 4.39472 259.344 2.68077C261.059 0.966823 263.386 0.00272868 265.812 0H471.468C473.894 0.00272868 476.221 0.966823 477.936 2.68077C479.652 4.39472 480.617 6.71855 480.62 9.14244V91.4244C480.617 93.8483 479.652 96.1721 477.936 97.8861C476.221 99.6 473.894 100.564 471.468 100.567H456.932V130.145Z" fill="white"/>
<path d="M437.54 27.1637C437.472 25.4286 436.735 23.787 435.482 22.5829C434.23 21.3789 432.56 20.7058 430.821 20.7048H306.459C304.674 20.7048 302.962 21.4131 301.7 22.6738C300.438 23.9345 299.729 25.6443 299.729 27.4272C299.729 29.2101 300.438 30.92 301.7 32.1807C302.962 33.4414 304.674 34.1496 306.459 34.1496H430.821C432.605 34.1471 434.316 33.4381 435.577 32.1779C436.839 30.9178 437.548 29.2093 437.551 27.4272C437.553 27.3392 437.549 27.2512 437.54 27.1637Z" fill="white"/>
<path d="M437.54 49.7511C437.472 48.016 436.735 46.3744 435.482 45.1704C434.23 43.9663 432.56 43.2932 430.821 43.2922H306.459C304.674 43.2922 302.962 44.0005 301.7 45.2612C300.438 46.5219 299.729 48.2317 299.729 50.0146C299.729 51.7975 300.438 53.5074 301.7 54.7681C302.962 56.0288 304.674 56.737 306.459 56.737H430.821C432.605 56.7345 434.316 56.0255 435.577 54.7653C436.839 53.5052 437.548 51.7968 437.551 50.0146C437.553 49.9266 437.549 49.8386 437.54 49.7511Z" fill="white"/>
<path d="M437.54 72.3383C437.472 70.6032 436.735 68.9616 435.482 67.7575C434.23 66.5535 432.56 65.8804 430.821 65.8794H306.459C305.472 65.8794 304.498 66.0962 303.605 66.5145C302.712 66.9327 301.922 67.5421 301.29 68.2995C301.014 68.6346 300.769 68.9947 300.558 69.375H360.026C362.167 69.3776 364.22 70.2284 365.734 71.7406C367.247 73.2529 368.099 75.3032 368.102 77.4419V79.3242H430.821C432.605 79.3217 434.316 78.6127 435.577 77.3525C436.839 76.0923 437.548 74.3839 437.551 72.6018C437.553 72.5138 437.549 72.4258 437.54 72.3383Z" fill="white"/>
<path d="M13.1993 368.228C13.4922 368.468 13.7852 368.698 14.085 368.925H88.0587C88.6097 368.698 89.1583 368.466 89.7045 368.228C97.5139 364.833 104.783 360.312 111.279 354.81C115.592 351.16 119.56 347.391 122.437 343.859C126.451 338.93 130.147 333.559 131.866 327.439C133.582 321.318 133.069 314.303 129.237 309.228C128.05 307.667 126.591 306.332 124.93 305.288C124.655 305.114 124.376 304.947 124.09 304.79C119.322 302.227 113.761 301.558 108.52 302.92C101.111 304.832 94.9525 310.172 90.5589 316.435C86.1652 322.694 83.3128 329.884 80.5024 336.993C77.6499 324.304 69.0126 312.938 57.345 307.159C45.6809 301.38 31.1888 301.45 19.7724 307.709C16.1803 309.691 12.9355 312.244 10.1656 315.268C9.89026 315.564 9.62158 315.867 9.35664 316.174C3.78797 322.614 0.304364 330.863 0.018486 339.369C-0.110044 344.861 1.0092 350.312 3.29213 355.31C5.57506 360.308 8.96229 364.725 13.1993 368.228Z" fill="#F2F2F2"/>
<path d="M85.1018 368.925H86.1479C86.1617 368.691 86.1792 368.461 86.2002 368.228C86.5658 363.672 87.3313 359.156 88.4877 354.734C91.1408 344.637 95.6726 335.129 101.846 326.707C108.003 318.258 115.763 311.102 124.686 305.647C124.752 305.61 124.808 305.558 124.85 305.496C124.892 305.434 124.92 305.363 124.93 305.288C124.947 305.191 124.937 305.091 124.899 305C124.861 304.908 124.798 304.83 124.717 304.773C124.637 304.716 124.541 304.683 124.443 304.678C124.344 304.673 124.246 304.696 124.16 304.745C124.136 304.759 124.113 304.774 124.09 304.79C119.035 307.868 114.342 311.504 110.1 315.63C102.513 323.024 96.3946 331.785 92.0688 341.452C88.2526 349.918 85.915 358.974 85.1575 368.228C85.1365 368.461 85.1192 368.695 85.1018 368.925Z" fill="white"/>
<path d="M9.35672 316.173C9.36429 316.177 9.37258 316.18 9.38108 316.18C10.1447 316.32 10.9119 316.466 11.6722 316.623C17.9122 317.903 24.0207 319.756 29.9197 322.158C35.8033 324.556 41.4627 327.47 46.8318 330.866C52.2077 334.26 57.2773 338.115 61.9828 342.389C66.6884 346.656 71.0049 351.333 74.8813 356.364C77.7786 360.133 80.4128 364.097 82.7654 368.228C82.8979 368.458 83.0269 368.691 83.156 368.924H84.352C84.2265 368.691 84.0974 368.458 83.965 368.228C81.1188 363.167 77.8553 358.351 74.2083 353.831C70.1753 348.829 65.7047 344.196 60.8495 339.985C56.0252 335.799 50.8475 332.037 45.3742 328.741C39.8781 325.433 34.0996 322.616 28.1064 320.326C22.2905 318.104 16.2859 316.412 10.1656 315.268C9.99487 315.236 9.82751 315.205 9.65656 315.174C9.00462 315.055 8.72555 316.038 9.35672 316.173Z" fill="white"/>
<path d="M30.1584 352.535C37.4429 351.534 44.8406 351.701 52.0726 353.029C59.2835 354.346 66.2449 356.777 72.7062 360.235C76.3374 362.184 79.7839 364.459 83.0031 367.031C83.5289 367.45 82.7845 368.186 82.2633 367.77C76.6146 363.281 70.2825 359.725 63.5077 357.238C56.7865 354.755 49.7217 353.323 42.5632 352.993C38.5126 352.807 34.4535 352.991 30.4364 353.543C30.3029 353.575 30.1621 353.555 30.0427 353.487C29.9232 353.419 29.834 353.309 29.793 353.178C29.757 353.044 29.7751 352.902 29.8435 352.782C29.9119 352.661 30.025 352.573 30.1583 352.535H30.1584Z" fill="white"/>
<path d="M359.488 69.375H153.832C151.406 69.3784 149.08 70.3427 147.364 72.0565C145.649 73.7703 144.683 76.0938 144.68 78.5174V160.799C144.683 163.223 145.649 165.547 147.364 167.26C149.08 168.974 151.406 169.938 153.832 169.942H168.368V199.52H168.906C174.759 199.514 180.369 197.189 184.508 193.055C188.646 188.922 190.973 183.317 190.979 177.471V169.942H359.488C361.914 169.938 364.24 168.974 365.956 167.26C367.671 165.547 368.637 163.223 368.64 160.799V78.5174C368.637 76.0938 367.671 73.7703 365.956 72.0566C364.24 70.3428 361.914 69.3784 359.488 69.375ZM367.563 160.799C367.561 162.938 366.709 164.988 365.195 166.501C363.681 168.013 361.629 168.864 359.488 168.866H189.903V177.471C189.895 182.938 187.754 188.187 183.934 192.103C180.114 196.018 174.916 198.291 169.445 198.439V168.866H153.832C151.691 168.864 149.639 168.013 148.125 166.501C146.611 164.988 145.759 162.938 145.757 160.799V78.5174C145.759 76.3788 146.611 74.3285 148.125 72.8162C149.639 71.3039 151.691 70.4532 153.832 70.4506H359.488C361.629 70.4532 363.681 71.3039 365.195 72.8162C366.709 74.3285 367.561 76.3788 367.563 78.5174V160.799Z" fill="#CCCCCC"/>
<path d="M318.841 90.0798H194.479C192.741 90.0808 191.07 90.7539 189.818 91.9579C188.565 93.162 187.828 94.8036 187.76 96.5387C187.751 96.6262 187.747 96.7142 187.749 96.8022C187.752 98.5843 188.462 100.293 189.723 101.553C190.985 102.813 192.695 103.522 194.479 103.525H318.841C320.626 103.525 322.338 102.816 323.6 101.556C324.862 100.295 325.571 98.5851 325.571 96.8022C325.571 95.0193 324.862 93.3095 323.6 92.0488C322.338 90.7881 320.626 90.0798 318.841 90.0798Z" fill="#CCCCCC"/>
<path d="M318.841 112.667H194.479C192.741 112.668 191.07 113.341 189.818 114.545C188.565 115.749 187.828 117.391 187.76 119.126C187.751 119.214 187.747 119.302 187.749 119.39C187.752 121.172 188.462 122.88 189.723 124.14C190.985 125.4 192.695 126.11 194.479 126.112H318.841C320.626 126.112 322.338 125.404 323.6 124.143C324.862 122.882 325.571 121.173 325.571 119.39C325.571 117.607 324.862 115.897 323.6 114.636C322.338 113.375 320.626 112.667 318.841 112.667Z" fill="#CCCCCC"/>
<path d="M318.841 135.254H194.479C192.741 135.255 191.07 135.928 189.818 137.133C188.565 138.337 187.828 139.978 187.76 141.713C187.751 141.801 187.747 141.889 187.749 141.977C187.752 143.759 188.462 145.467 189.723 146.727C190.985 147.988 192.695 148.697 194.479 148.699H318.841C320.626 148.699 322.338 147.991 323.6 146.73C324.862 145.47 325.571 143.76 325.571 141.977C325.571 140.194 324.862 138.484 323.6 137.223C322.338 135.963 320.626 135.254 318.841 135.254Z" fill="#CCCCCC"/>
<path d="M120.985 254.224C120.742 254.224 120.5 254.209 120.26 254.179C119.431 254.077 118.634 253.802 117.919 253.371C117.205 252.94 116.59 252.364 116.114 251.679C115.638 250.994 115.312 250.216 115.159 249.397C115.005 248.577 115.026 247.735 115.221 246.924C115.267 246.736 115.323 246.55 115.388 246.368L97.4254 223.397C96.6346 222.377 96.1939 221.131 96.1686 219.841C96.1434 218.552 96.535 217.289 97.2853 216.239L103.577 207.51L111.801 213.848L108.497 219.517L121.581 242.426C121.844 242.451 122.105 242.493 122.362 242.554C123.772 242.892 125.008 243.735 125.837 244.923C126.666 246.111 127.031 247.562 126.861 249C126.691 250.438 125.999 251.764 124.916 252.727C123.833 253.69 122.434 254.223 120.985 254.224L120.985 254.224Z" fill="#FFB8B8"/>
<path d="M152.071 363.072L158.671 363.072L161.811 337.641L152.07 337.641L152.071 363.072Z" fill="#FFB8B8"/>
<path d="M171.4 369.193L150.656 369.194L150.656 361.188L163.385 361.188C164.437 361.188 165.48 361.395 166.452 361.797C167.424 362.199 168.308 362.789 169.052 363.532C169.796 364.276 170.387 365.158 170.79 366.13C171.192 367.101 171.4 368.142 171.4 369.193Z" fill="#2F2E41"/>
<path d="M97.6957 363.072L104.296 363.072L107.436 337.641L97.6946 337.641L97.6957 363.072Z" fill="#FFB8B8"/>
<path d="M117.025 369.193L96.2813 369.194L96.2809 361.188L109.01 361.188C110.062 361.188 111.105 361.395 112.077 361.797C113.049 362.199 113.933 362.789 114.677 363.532C115.421 364.276 116.012 365.158 116.415 366.13C116.817 367.101 117.025 368.142 117.025 369.193Z" fill="#2F2E41"/>
<path d="M101.747 208.748L116.565 214.373L120.183 204.335C120.663 203.002 120.656 201.542 120.164 200.213C119.671 198.885 118.724 197.773 117.49 197.075C116.242 196.368 114.782 196.131 113.373 196.405C111.965 196.68 110.702 197.448 109.811 198.572L101.747 208.748Z" fill="#CCCCCC"/>
<path d="M150.897 342.543C150.305 342.543 149.731 342.345 149.264 341.983C148.797 341.62 148.464 341.112 148.317 340.539C140.928 312.299 133.425 298.145 125.379 281.777C125.178 281.369 124.852 281.036 124.448 280.826C124.044 280.615 123.584 280.539 123.133 280.609C122.683 280.678 122.267 280.889 121.945 281.211C121.624 281.533 121.413 281.949 121.344 282.399L111.372 339.969C111.272 340.611 110.942 341.195 110.444 341.612C109.945 342.03 109.311 342.252 108.661 342.237L93.8551 341.877C93.4959 341.869 93.1419 341.789 92.8145 341.641C92.4871 341.493 92.1932 341.281 91.9506 341.016C91.6943 340.762 91.4981 340.454 91.3767 340.115C91.2552 339.775 91.2115 339.413 91.2487 339.054C97.9546 294.878 103.234 254.89 113.388 242.69C113.669 242.424 113.992 242.205 114.343 242.042L114.035 241.994C113.947 241.981 113.713 241.945 113.71 241.709L113.707 241.482L113.939 241.438C114.308 241.425 114.677 241.48 115.027 241.601L138.201 245.164C138.843 245.263 139.427 245.591 139.844 246.088C140.261 246.586 140.484 247.217 140.469 247.866C141.729 253.753 143.66 262.64 143.832 263.077C156.196 286.558 160.994 305.048 165.981 336.622C166.084 337.291 165.93 337.975 165.549 338.535C165.168 339.096 164.59 339.492 163.929 339.643L151.501 342.475C151.303 342.52 151.1 342.543 150.897 342.543Z" fill="#2F2E41"/>
<path d="M137.893 249.014C137.685 249.014 137.477 248.989 137.275 248.941L114.46 243.52C114.11 243.438 113.781 243.286 113.493 243.072C113.204 242.859 112.962 242.588 112.783 242.278C112.597 241.957 112.478 241.602 112.434 241.233C112.389 240.865 112.419 240.492 112.522 240.136C114.982 231.615 111.756 221.053 107.904 210.909C107.414 207.942 107.894 204.897 109.272 202.225C110.651 199.552 112.856 197.395 115.559 196.072L115.621 196.042L127.599 196.646C129.566 197.161 131.39 198.115 132.935 199.436C134.48 200.757 135.705 202.41 136.518 204.272C141.135 215.066 142.457 228.916 140.559 246.615C140.489 247.273 140.178 247.882 139.686 248.325C139.194 248.768 138.555 249.013 137.893 249.014L137.893 249.014Z" fill="#CCCCCC"/>
<path d="M140.962 224.375C139.744 224.378 138.556 224.001 137.563 223.296L128.726 217.004L135.031 208.759L140.722 212.032L163.593 198.852C163.616 198.589 163.657 198.328 163.716 198.071C163.984 196.932 164.584 195.898 165.441 195.1C166.297 194.302 167.371 193.775 168.527 193.587C169.683 193.398 170.869 193.556 171.935 194.041C173.001 194.526 173.899 195.316 174.516 196.31C175.132 197.305 175.44 198.46 175.399 199.629C175.359 200.799 174.972 201.93 174.288 202.88C173.604 203.829 172.654 204.555 171.557 204.966C170.46 205.376 169.266 205.452 168.126 205.184C167.937 205.139 167.751 205.084 167.568 205.02L144.594 223.125C143.558 223.937 142.279 224.378 140.962 224.375Z" fill="#FFB8B8"/>
<path d="M125.923 219.572L139.031 210.668L132.871 201.952C132.053 200.795 130.851 199.963 129.479 199.605C128.107 199.247 126.652 199.385 125.372 199.994C124.077 200.611 123.045 201.67 122.463 202.98C121.881 204.29 121.787 205.765 122.199 207.138L125.923 219.572Z" fill="#CCCCCC"/>
<path d="M119.618 191.573C126.921 191.573 132.841 185.659 132.841 178.364C132.841 171.069 126.921 165.156 119.618 165.156C112.316 165.156 106.396 171.069 106.396 178.364C106.396 185.659 112.316 191.573 119.618 191.573Z" fill="#FFB8B8"/>
<path d="M120.83 191.878C118.845 191.87 117.314 189.783 117.403 187.802C117.492 185.821 118.824 184.079 120.428 182.912C122.032 181.745 123.914 181.034 125.703 180.176C127.492 179.318 129.266 178.248 130.37 176.601C131.038 175.523 131.436 174.3 131.532 173.036C131.628 171.773 131.418 170.504 130.921 169.338C129.893 167.006 128.128 165.074 125.897 163.84C122.581 161.901 118.657 161.281 114.905 162.104C111.153 162.926 107.848 165.13 105.65 168.277L103.385 174.439C101.076 177.211 100.71 181.329 102.129 184.646C103.548 187.962 106.57 190.457 109.979 191.643C113.438 192.753 117.141 192.864 120.661 191.963" fill="#2F2E41"/>
<path d="M106.543 172.102C105.637 170.707 104.401 169.555 102.945 168.75C101.488 167.944 99.856 167.509 98.1914 167.482C96.5268 167.455 94.8812 167.838 93.3997 168.597C91.9182 169.355 90.6462 170.466 89.696 171.832C88.1054 174.118 87.5278 176.935 86.4341 179.496C84.4531 184.081 80.8505 187.777 76.3145 189.877C80.2862 190.574 84.243 188.556 87.4183 186.073C90.5936 183.59 93.3861 180.559 96.9422 178.659C99.7397 177.17 102.883 176.449 106.05 176.569" fill="#2F2E41"/>
<path d="M219.914 370H14.7967C14.6539 370 14.5169 369.943 14.416 369.842C14.315 369.742 14.2583 369.605 14.2583 369.462C14.2583 369.319 14.315 369.183 14.416 369.082C14.5169 368.981 14.6539 368.924 14.7967 368.924H219.914C220.057 368.924 220.194 368.981 220.295 369.082C220.396 369.183 220.452 369.319 220.452 369.462C220.452 369.605 220.396 369.742 220.295 369.842C220.194 369.943 220.057 370 219.914 370Z" fill="#F2F2F2"/>
<path d="M475.236 196.831C492.779 196.831 507 182.626 507 165.102C507 147.578 492.779 133.372 475.236 133.372C457.694 133.372 443.473 147.578 443.473 165.102C443.473 182.626 457.694 196.831 475.236 196.831Z" fill="white"/>
<path d="M478.266 187.717C476.972 187.681 475.362 187.636 474.122 186.731C473.753 186.451 473.45 186.093 473.233 185.683C473.017 185.273 472.893 184.821 472.87 184.358C472.848 184.029 472.902 183.699 473.028 183.395C473.154 183.09 473.349 182.819 473.598 182.602C473.968 182.326 474.4 182.148 474.857 182.082C475.313 182.016 475.779 182.066 476.211 182.226L475.155 174.516L475.93 174.41L477.172 183.474L476.524 183.177C475.774 182.833 474.743 182.659 474.103 183.199C473.946 183.34 473.823 183.516 473.745 183.712C473.667 183.908 473.635 184.12 473.652 184.33C473.671 184.675 473.764 185.011 473.925 185.317C474.086 185.622 474.31 185.889 474.584 186.1C475.549 186.804 476.832 186.895 478.288 186.936L478.266 187.717Z" fill="#3F3D56"/>
<path d="M471.321 175.181H467.106V175.963H471.321V175.181Z" fill="#3F3D56"/>
<path d="M484.624 175.181H480.409V175.963H484.624V175.181Z" fill="#3F3D56"/>
<path d="M459.784 164.387C456.39 164 453.762 160.752 453.473 157.456C453.13 153.535 455.416 149.811 458.552 147.611C461.831 145.31 465.918 144.349 469.871 144.137C477.583 143.754 485.163 146.25 491.135 151.139C494.098 153.597 496.865 156.727 497.913 160.509C498.824 163.793 498.083 167.514 495.439 169.814C494.784 170.378 494.02 170.8 493.195 171.054C492.369 171.308 491.5 171.388 490.642 171.289C488.59 171.077 486.697 169.999 485.058 168.809C481.871 166.494 479.254 163.268 475.37 162.059C472.523 161.171 468.828 161.952 467.088 164.525C466.693 165.113 466.437 165.784 466.339 166.486C466.303 166.636 466.326 166.794 466.402 166.927C466.478 167.061 466.602 167.161 466.749 167.207C466.899 167.248 467.059 167.227 467.194 167.151C467.329 167.074 467.429 166.947 467.471 166.798C467.928 163.558 471.916 162.349 474.714 163.089C478.795 164.168 481.534 167.805 484.881 170.116C486.614 171.406 488.656 172.22 490.802 172.476C492.663 172.622 494.51 172.055 495.968 170.891C498.828 168.635 499.922 164.755 499.289 161.262C498.557 157.216 495.831 153.749 492.841 151.065C486.778 145.68 478.906 142.776 470.795 142.93C466.658 143.025 462.342 143.878 458.778 146.062C455.321 148.181 452.649 151.725 452.299 155.846C451.992 159.472 453.94 163.265 457.283 164.854C458.072 165.227 458.917 165.466 459.784 165.559C460.534 165.645 460.528 164.472 459.784 164.387L459.784 164.387Z" fill="#3F3D56"/>
</svg>
