<svg width="578" height="391" viewBox="0 0 578 391" fill="none" xmlns="http://www.w3.org/2000/svg">
<g clip-path="url(#clip0)">
<path d="M528.711 136.806C528.105 137.305 527.498 137.781 526.876 138.251H373.629C372.487 137.781 371.351 137.3 370.219 136.806C354.041 129.768 338.982 120.396 325.525 108.989C316.589 101.421 308.368 93.6078 302.408 86.2853C294.094 76.067 286.436 64.9316 282.875 52.2436C279.321 39.5556 280.382 25.0116 288.322 14.49C290.78 11.2535 293.802 8.48668 297.243 6.32262C297.814 5.96155 298.392 5.61493 298.984 5.28997C308.505 -0.0538787 320.518 -1.35374 331.239 1.41206C346.59 5.37662 359.347 16.447 368.449 29.4311C377.551 42.408 383.461 57.313 389.283 72.0519C395.192 45.7443 413.086 22.1808 437.257 10.2005C461.421 -1.77981 491.443 -1.63538 515.094 11.3415C522.536 15.4493 529.258 20.7422 534.996 27.012C535.567 27.6258 536.123 28.2541 536.672 28.8895C548.208 42.2419 555.425 59.3423 556.018 76.977C556.776 99.6955 546.244 122.515 528.711 136.806Z" fill="#F2F2F2"/>
<path d="M379.754 138.251H377.587C377.559 137.767 377.522 137.29 377.479 136.806C376.721 127.36 375.136 117.999 372.74 108.831C367.244 87.8985 357.855 68.1875 345.065 50.727C332.312 33.2107 316.234 18.3752 297.749 7.06639C297.614 6.98894 297.498 6.8817 297.41 6.75282C297.323 6.62394 297.265 6.4768 297.243 6.32258C297.208 6.12092 297.231 5.91337 297.309 5.72411C297.387 5.53484 297.517 5.37167 297.684 5.25361C297.852 5.13554 298.049 5.06744 298.254 5.05725C298.458 5.04706 298.662 5.09519 298.84 5.19604C298.889 5.22477 298.938 5.2561 298.984 5.28991C309.457 11.6711 319.179 19.2095 327.966 27.763C343.685 43.0913 356.36 61.255 365.321 81.2953C373.227 98.8468 378.07 117.622 379.639 136.806C379.682 137.29 379.718 137.774 379.754 138.251Z" fill="white"/>
<path d="M536.672 28.8895C536.656 28.8976 536.639 28.9025 536.622 28.9039C535.04 29.1928 533.45 29.4961 531.875 29.8211C518.948 32.475 506.293 36.3162 494.073 41.2959C481.884 46.2685 470.16 52.3099 459.037 59.3494C447.9 66.3853 437.397 74.3783 427.649 83.2379C417.901 92.0846 408.958 101.78 400.928 112.21C394.926 120.025 389.468 128.243 384.595 136.806C384.32 137.283 384.053 137.767 383.785 138.251H381.308C381.568 137.767 381.835 137.283 382.11 136.806C388.006 126.313 394.767 116.33 402.322 106.96C410.677 96.5902 419.939 86.984 429.997 78.2551C439.991 69.5754 450.718 61.7761 462.056 54.9444C473.442 48.085 485.413 42.2466 497.829 37.4974C509.878 32.8929 522.317 29.3835 534.996 27.0119C535.35 26.9469 535.697 26.8819 536.051 26.8169C537.402 26.5714 537.98 28.6078 536.672 28.8895Z" fill="white"/>
<path d="M142.802 142.544C146.656 135.271 147.292 125.799 142.5 119.107C139.647 115.124 135.193 112.509 130.52 111.034C125.847 109.559 120.917 109.125 116.03 108.767C111.192 108.412 106.267 108.128 101.541 109.222C96.8152 110.316 92.2374 112.988 89.9351 117.257C86.0458 124.468 89.5887 133.714 86.7321 141.392C84.1105 148.439 76.6495 152.558 69.3151 154.221C61.9806 155.883 54.3253 155.706 46.9872 157.353C39.6492 158.999 32.1757 163.081 29.5077 170.11C27.5783 175.193 28.5369 181.047 31.0792 185.853C33.6214 190.659 37.6029 194.55 41.8292 197.972C48.1341 203.076 55.5103 207.448 63.6114 207.89C72.1474 208.356 80.4937 204.294 86.6375 198.352C92.7812 192.41 96.9639 184.731 100.306 176.865C102.426 171.875 104.429 166.505 108.677 163.135C111.799 160.659 115.769 159.574 119.62 158.548L123.98 157.387C127.931 156.353 131.629 154.523 134.846 152.007C138.062 149.492 140.731 146.346 142.686 142.761C142.724 142.689 142.763 142.616 142.802 142.544Z" fill="#2F2E41"/>
<path d="M108.415 381.771H99.5597L95.3459 347.622H108.418L108.415 381.771Z" fill="#FFB8B8"/>
<path d="M93.2334 379.241H110.313V389.991H82.4792C82.4792 388.58 82.7574 387.182 83.2979 385.877C83.8383 384.573 84.6304 383.388 85.629 382.39C86.6277 381.391 87.8132 380.599 89.1179 380.059C90.4227 379.519 91.8211 379.241 93.2334 379.241Z" fill="#2F2E41"/>
<path d="M182.099 381.771H173.243L169.03 347.622H182.101L182.099 381.771Z" fill="#FFB8B8"/>
<path d="M166.917 379.241H183.997V389.991H156.163C156.163 388.58 156.441 387.182 156.982 385.877C157.522 384.573 158.314 383.388 159.313 382.39C160.312 381.391 161.497 380.599 162.802 380.059C164.107 379.519 165.505 379.241 166.917 379.241Z" fill="#2F2E41"/>
<path d="M125.44 354.629C125.316 354.629 125.193 354.623 125.07 354.609L89.0393 350.75C88.5607 350.699 88.0986 350.546 87.6837 350.303C87.2687 350.059 86.9105 349.73 86.6327 349.337C86.355 348.944 86.1643 348.496 86.0731 348.024C85.9819 347.551 85.9924 347.065 86.104 346.597L118.007 225.299C118.156 224.682 118.475 224.118 118.927 223.673C119.38 223.227 119.948 222.917 120.568 222.777L150.163 214.53C150.756 214.4 151.373 214.43 151.951 214.618C152.529 214.806 153.046 215.145 153.448 215.6C172.476 237.055 186.816 284.616 197.678 344.564C197.76 345.016 197.749 345.48 197.646 345.928C197.542 346.376 197.349 346.799 197.077 347.17C196.805 347.541 196.461 347.852 196.065 348.086C195.669 348.319 195.229 348.47 194.773 348.528L165.25 352.296C164.413 352.405 163.565 352.196 162.874 351.712C162.183 351.227 161.698 350.501 161.515 349.677L147.151 285.66C147.019 285.071 146.689 284.545 146.215 284.171C145.741 283.796 145.153 283.595 144.549 283.602C143.945 283.609 143.362 283.823 142.897 284.209C142.432 284.594 142.114 285.128 141.995 285.72L128.754 351.905C128.604 352.673 128.191 353.365 127.586 353.862C126.982 354.359 126.223 354.63 125.44 354.629Z" fill="#2F2E41"/>
<path d="M119.959 159.2C129.758 159.2 137.702 151.259 137.702 141.463C137.702 131.668 129.758 123.727 119.959 123.727C110.16 123.727 102.217 131.668 102.217 141.463C102.217 151.259 110.16 159.2 119.959 159.2Z" fill="#FFB8B8"/>
<path d="M119.464 225.64C118.718 225.639 117.993 225.392 117.403 224.937C116.812 224.481 116.388 223.844 116.198 223.123L105.524 183.037C104.753 180.157 105.073 177.093 106.42 174.434C107.767 171.774 110.049 169.704 112.827 168.62C121.419 165.267 129.605 164.023 137.158 164.922C143.87 165.721 152.151 205.447 151.603 206.294L154.252 214.238C154.402 214.688 154.456 215.165 154.409 215.638C154.363 216.111 154.218 216.568 153.984 216.981C153.749 217.394 153.431 217.753 153.048 218.035C152.666 218.317 152.229 218.515 151.765 218.617L120.2 225.559C119.958 225.612 119.712 225.64 119.464 225.64Z" fill="#CCCCCC"/>
<path d="M129.03 266.634C129.182 265.845 129.159 265.032 128.963 264.253C128.767 263.474 128.402 262.747 127.895 262.124C127.387 261.501 126.749 260.997 126.026 260.647C125.302 260.297 124.511 260.11 123.707 260.099L117.558 241.561L111.272 249.531L118.076 265.913C118.147 267.264 118.711 268.542 119.661 269.504C120.612 270.467 121.882 271.048 123.233 271.137C124.583 271.226 125.919 270.816 126.987 269.986C128.056 269.156 128.783 267.963 129.03 266.634Z" fill="#FFB8B8"/>
<path d="M208.094 222.083C207.725 221.369 207.205 220.744 206.569 220.253C205.933 219.761 205.198 219.415 204.413 219.239C203.629 219.062 202.816 219.06 202.031 219.232C201.246 219.403 200.508 219.745 199.869 220.233L183.575 209.457L183.56 219.606L199.036 228.283C199.926 229.301 201.16 229.958 202.502 230.128C203.845 230.297 205.203 229.969 206.319 229.205C207.436 228.441 208.233 227.294 208.56 225.981C208.887 224.668 208.721 223.281 208.094 222.083H208.094Z" fill="#FFB8B8"/>
<path d="M116.137 258.069C115.424 258.069 114.73 257.845 114.152 257.428C113.574 257.01 113.143 256.422 112.919 255.745L98.5028 225.259C97.9115 223.473 97.6104 221.603 97.6108 219.721L101.945 180.096C101.945 177.878 102.792 175.743 104.313 174.127C105.834 172.511 107.914 171.537 110.13 171.403C112.345 171.269 114.528 171.985 116.233 173.405C117.938 174.825 119.036 176.843 119.304 179.045L112.673 224.273L123.255 252.032C123.422 252.771 123.337 253.544 123.012 254.228C122.688 254.913 122.143 255.468 121.465 255.806L117.652 257.712C117.181 257.947 116.663 258.069 116.137 258.069Z" fill="#CCCCCC"/>
<path d="M193.132 226.085C192.601 226.086 192.078 225.961 191.604 225.722L162.934 211.245C161.253 210.397 159.72 209.285 158.391 207.952L130.408 179.888C128.841 178.316 127.933 176.206 127.87 173.989C127.807 171.771 128.592 169.613 130.066 167.955C131.541 166.297 133.592 165.264 135.803 165.066C138.013 164.869 140.216 165.522 141.961 166.893L172.274 200.547L196.303 215.799C196.943 216.203 197.429 216.811 197.682 217.525C197.935 218.239 197.941 219.017 197.699 219.734L196.345 223.775C196.119 224.448 195.687 225.033 195.111 225.448C194.534 225.862 193.842 226.085 193.132 226.086L193.132 226.085Z" fill="#CCCCCC"/>
<path d="M99.7778 132.293C102.792 136.235 107.124 138.96 111.983 139.97C116.907 140.988 122.033 140.254 126.474 137.895C130.047 135.965 132.907 133.068 135.707 130.216C136.876 129.026 138.121 127.653 138.062 126.03C137.971 123.514 134.946 122.138 132.349 121.59C123.826 119.812 114.958 120.809 107.042 124.435C103.517 126.072 99.8439 129.033 100.373 132.715" fill="#2F2E41"/>
<path d="M565.719 136.806H217.527C214.272 136.811 211.151 138.106 208.849 140.407C206.547 142.708 205.251 145.828 205.247 149.083V283.401C205.251 286.655 206.547 289.775 208.849 292.077C211.151 294.378 214.272 295.673 217.527 295.677H565.719C568.975 295.673 572.096 294.378 574.398 292.077C576.7 289.775 577.995 286.655 578 283.401V149.083C577.995 145.828 576.7 142.708 574.398 140.407C572.096 138.106 568.975 136.811 565.719 136.806ZM576.555 283.401C576.552 286.273 575.409 289.026 573.378 291.057C571.346 293.087 568.592 294.23 565.719 294.233H217.527C214.655 294.23 211.901 293.087 209.869 291.057C207.838 289.026 206.695 286.273 206.692 283.401V149.083C206.695 146.211 207.838 143.458 209.869 141.427C211.901 139.396 214.655 138.254 217.527 138.251H565.719C568.592 138.254 571.346 139.396 573.378 141.427C575.409 143.458 576.552 146.211 576.555 149.083V283.401Z" fill="#F2F2F2"/>
<path d="M280.747 258.126C272.46 258.126 264.359 255.669 257.469 251.067C250.579 246.465 245.208 239.923 242.037 232.27C238.866 224.617 238.036 216.195 239.653 208.071C241.27 199.946 245.26 192.483 251.12 186.625C256.979 180.768 264.445 176.778 272.573 175.162C280.7 173.546 289.124 174.376 296.78 177.546C304.436 180.716 310.98 186.084 315.584 192.972C320.188 199.86 322.645 207.958 322.645 216.242C322.633 227.346 318.214 237.992 310.359 245.844C302.505 253.697 291.855 258.113 280.747 258.126ZM280.747 175.802C272.746 175.802 264.924 178.174 258.272 182.617C251.619 187.061 246.434 193.377 243.372 200.766C240.31 208.156 239.509 216.287 241.07 224.131C242.631 231.976 246.484 239.181 252.141 244.837C257.799 250.493 265.007 254.344 272.854 255.905C280.702 257.465 288.836 256.664 296.228 253.603C303.619 250.543 309.938 245.359 314.383 238.709C318.828 232.059 321.2 224.24 321.2 216.242C321.188 205.52 316.922 195.241 309.338 187.66C301.754 180.079 291.472 175.814 280.747 175.802Z" fill="#F2F2F2"/>
<path d="M534.647 189.523H367.775C365.442 189.524 363.201 190.428 361.52 192.044C359.839 193.661 358.85 195.866 358.759 198.195C358.747 198.313 358.742 198.431 358.745 198.549C358.748 200.942 359.701 203.236 361.393 204.929C363.086 206.621 365.381 207.573 367.775 207.576H534.647C537.042 207.576 539.338 206.625 541.032 204.932C542.725 203.239 543.677 200.943 543.677 198.549C543.677 196.155 542.725 193.859 541.032 192.166C539.338 190.474 537.042 189.523 534.647 189.523Z" fill="#F2F2F2"/>
<path d="M534.647 224.907H367.775C365.442 224.909 363.201 225.813 361.52 227.429C359.839 229.046 358.85 231.25 358.759 233.58C358.747 233.698 358.742 233.816 358.745 233.934C358.748 236.327 359.701 238.621 361.393 240.313C363.086 242.006 365.381 242.958 367.775 242.961H534.647C537.042 242.961 539.338 242.01 541.032 240.317C542.725 238.624 543.677 236.328 543.677 233.934C543.677 231.54 542.725 229.244 541.032 227.551C539.338 225.859 537.042 224.907 534.647 224.907Z" fill="#F2F2F2"/>
<path d="M276.072 234.542C274.903 234.544 273.765 234.166 272.83 233.465L272.772 233.422L260.56 224.076C259.995 223.643 259.52 223.102 259.164 222.486C258.807 221.869 258.575 221.188 258.482 220.482C258.388 219.776 258.435 219.059 258.619 218.371C258.803 217.683 259.12 217.038 259.554 216.472C259.987 215.907 260.527 215.432 261.144 215.076C261.761 214.719 262.442 214.488 263.148 214.394C263.854 214.301 264.572 214.347 265.26 214.531C265.949 214.715 266.594 215.033 267.16 215.466L275.069 221.529L293.761 197.161C294.194 196.595 294.735 196.121 295.352 195.765C295.968 195.408 296.65 195.177 297.356 195.084C298.062 194.991 298.78 195.037 299.468 195.222C300.156 195.406 300.802 195.723 301.367 196.157L301.251 196.315L301.37 196.159C302.51 197.035 303.257 198.328 303.445 199.753C303.633 201.179 303.248 202.621 302.374 203.763L280.388 232.426C279.88 233.086 279.226 233.621 278.478 233.988C277.729 234.355 276.906 234.544 276.072 234.542Z" fill="#F2F2F2"/>
<path d="M275.953 391H0.72239C0.5308 391 0.347057 390.924 0.211583 390.788C0.0761082 390.653 0 390.469 0 390.278C0 390.086 0.0761082 389.903 0.211583 389.767C0.347057 389.632 0.5308 389.556 0.72239 389.556H275.953C276.145 389.556 276.328 389.632 276.464 389.767C276.599 389.903 276.675 390.086 276.675 390.278C276.675 390.469 276.599 390.653 276.464 390.788C276.328 390.924 276.145 391 275.953 391Z" fill="#F2F2F2"/>
<path d="M493.578 104.273C478.487 102.198 463.162 102.544 448.18 105.297C433.241 108.027 418.82 113.067 405.434 120.237C397.911 124.277 390.771 128.993 384.102 134.325C383.013 135.195 384.555 136.719 385.635 135.857C397.337 126.551 410.455 119.18 424.49 114.023C438.414 108.875 453.05 105.906 467.88 105.223C476.271 104.838 484.68 105.219 493.002 106.362C493.279 106.429 493.571 106.387 493.818 106.247C494.065 106.107 494.25 105.877 494.335 105.606C494.41 105.329 494.372 105.034 494.231 104.784C494.089 104.535 493.855 104.351 493.578 104.273H493.578Z" fill="white"/>
</g>
<defs>
<clipPath id="clip0">
<rect width="578" height="391" fill="white"/>
</clipPath>
</defs>
</svg>
