<svg width="533" height="326" viewBox="0 0 533 326" fill="none" xmlns="http://www.w3.org/2000/svg">
<g clip-path="url(#clip0)">
<path d="M92.4224 215.874H89.6736V324.684H92.4224V215.874Z" fill="#F2F2F2"/>
<path d="M56.688 215.874H53.9392V324.684H56.688V215.874Z" fill="#F2F2F2"/>
<path d="M64.8719 325.361L63.959 325.155C74.1385 279.788 99.7205 238.592 135.992 209.153C163.415 186.931 196.03 172.069 230.767 165.966" stroke="#F2F2F2"/>
<path d="M467.285 325.361L468.179 325.155C458.218 279.911 433.187 238.824 397.696 209.465C370.863 187.302 338.95 172.48 304.961 166.394" stroke="#3F3D56"/>
<path d="M195.759 58.3725C209.795 58.3725 221.173 46.9699 221.173 32.9041C221.173 18.8384 209.795 7.43578 195.759 7.43578C181.724 7.43578 170.345 18.8384 170.345 32.9041C170.345 46.9699 181.724 58.3725 195.759 58.3725Z" fill="#FF6584"/>
<path d="M86.2699 319.575C87.0625 322.511 89.7773 324.33 89.7773 324.33C89.7773 324.33 91.207 321.388 90.4144 318.452C89.6218 315.515 86.907 313.697 86.907 313.697C86.907 313.697 85.4773 316.639 86.2699 319.575Z" fill="#F2F2F2"/>
<path d="M87.4345 318.944C89.6093 321.066 89.875 324.327 89.875 324.327C89.875 324.327 86.6145 324.149 84.4396 322.027C82.2647 319.906 81.999 316.644 81.999 316.644C81.999 316.644 85.2596 316.823 87.4345 318.944Z" fill="#A6A1FF"/>
<path d="M146.629 319.575C147.421 322.511 150.136 324.33 150.136 324.33C150.136 324.33 151.566 321.388 150.773 318.452C149.981 315.515 147.266 313.697 147.266 313.697C147.266 313.697 145.836 316.639 146.629 319.575Z" fill="#F2F2F2"/>
<path d="M147.793 318.944C149.968 321.066 150.234 324.327 150.234 324.327C150.234 324.327 146.973 324.149 144.798 322.027C142.624 319.906 142.358 316.644 142.358 316.644C142.358 316.644 145.618 316.823 147.793 318.944Z" fill="#A6A1FF"/>
<path d="M158.597 85.6951L149.041 78.0333L202.556 30.1497H338.256V72.2874L250.338 131.663L158.597 85.6951Z" fill="#3F3D56"/>
<path d="M362.997 57.0097V31.1063H344.98V37.45L338.256 30.1497L294.297 78.0333L277.095 89.5256L250.424 284.805L290.647 325.114H384.126V79.9487L362.997 57.0097Z" fill="#CCCCCC"/>
<path d="M294.297 78.0335H149.041V325.114H294.297V78.0335Z" fill="#F2F2F2"/>
<path d="M232.181 264.78H205.423V325.114H232.181V264.78Z" fill="#CCCCCC"/>
<path d="M176.754 282.018V272.441H165.287V282.018H175.799H176.754Z" fill="#3F3D56"/>
<path d="M175.799 289.68H165.287V299.256H176.754V289.68H175.799Z" fill="#3F3D56"/>
<path d="M195.867 272.442H184.399V282.018H195.867V272.442Z" fill="#3F3D56"/>
<path d="M195.867 289.68H184.399V299.257H195.867V289.68Z" fill="#3F3D56"/>
<path d="M255.116 282.018V272.441H243.648V282.018H254.16H255.116Z" fill="#3F3D56"/>
<path d="M254.16 289.68H243.648V299.256H255.116V289.68H254.16Z" fill="#3F3D56"/>
<path d="M274.229 272.442H262.761V282.018H274.229V272.442Z" fill="#3F3D56"/>
<path d="M274.229 289.68H262.761V299.257H274.229V289.68Z" fill="#3F3D56"/>
<path d="M335.389 90.483V80.9067H323.921V90.483H334.433H335.389Z" fill="#3F3D56"/>
<path d="M334.433 98.1449H323.921V107.721H335.389V98.1449H334.433Z" fill="#3F3D56"/>
<path d="M354.501 80.9065H343.034V90.4833H354.501V80.9065Z" fill="#3F3D56"/>
<path d="M354.501 98.1447H343.034V107.721H354.501V98.1447Z" fill="#3F3D56"/>
<path d="M335.389 144.113V134.536H323.921V144.113H334.433H335.389Z" fill="#3F3D56"/>
<path d="M334.433 151.774H323.921V161.351H335.389V151.774H334.433Z" fill="#3F3D56"/>
<path d="M354.501 134.536H343.034V144.113H354.501V134.536Z" fill="#3F3D56"/>
<path d="M354.501 151.775H343.034V161.351H354.501V151.775Z" fill="#3F3D56"/>
<path d="M335.389 197.743V188.166H323.921V197.743H334.433H335.389Z" fill="#3F3D56"/>
<path d="M334.433 205.404H323.921V214.981H335.389V205.404H334.433Z" fill="#3F3D56"/>
<path d="M354.501 188.166H343.034V197.743H354.501V188.166Z" fill="#3F3D56"/>
<path d="M354.501 205.404H343.034V214.981H354.501V205.404Z" fill="#3F3D56"/>
<path d="M335.389 251.373V241.796H323.921V251.373H334.433H335.389Z" fill="#3F3D56"/>
<path d="M334.433 259.034H323.921V268.611H335.389V259.034H334.433Z" fill="#3F3D56"/>
<path d="M354.501 241.796H343.034V251.373H354.501V241.796Z" fill="#3F3D56"/>
<path d="M354.501 259.034H343.034V268.611H354.501V259.034Z" fill="#3F3D56"/>
<path d="M276.14 90.4832H165.287V113.467H276.14V90.4832Z" fill="#3F3D56"/>
<path d="M276.14 136.452H165.287V159.436H276.14V136.452Z" fill="#3F3D56"/>
<path d="M276.14 182.42H165.287V205.404H276.14V182.42Z" fill="#3F3D56"/>
<path d="M276.14 228.389H165.287V251.373H276.14V228.389Z" fill="#3F3D56"/>
<path d="M532.583 324.478H0.583496V326.244H532.583V324.478Z" fill="#3F3D56"/>
<path d="M275.847 324.478H0.583496V326.244H275.847V324.478Z" fill="#F2F2F2"/>
<path d="M117.791 229.741C117.966 267.789 91.2539 298.757 91.2539 298.757C91.2539 298.757 64.2586 268.037 64.0836 229.989C63.9087 191.941 90.6203 160.973 90.6203 160.973C90.6203 160.973 117.616 191.693 117.791 229.741Z" fill="#9F69FF"/>
<path d="M82.0562 229.741C82.2312 267.789 55.5196 298.757 55.5196 298.757C55.5196 298.757 28.5242 268.037 28.3492 229.989C28.1743 191.941 54.8859 160.973 54.8859 160.973C54.8859 160.973 81.8813 191.693 82.0562 229.741Z" fill="#A6A1FF"/>
<path d="M443.007 77.8796C421.354 77.9796 403.729 78.3002 403.729 78.3002C403.729 78.3002 424.679 50.4911 442.928 60.7942C461.177 71.0972 482.141 77.938 482.141 77.938C482.141 77.938 464.659 77.7796 443.007 77.8796Z" fill="#D6D6D6"/>
<path d="M82.2573 131.334C60.6045 131.434 42.98 131.755 42.98 131.755C42.98 131.755 63.9295 103.946 82.1787 114.249C100.428 124.552 121.392 131.393 121.392 131.393C121.392 131.393 103.91 131.234 82.2573 131.334Z" fill="#F2F2F2"/>
<path d="M160.864 19.736C139.211 19.8361 121.587 20.1566 121.587 20.1566C121.587 20.1566 142.536 -7.65253 160.785 2.65057C179.035 12.9537 199.998 19.7945 199.998 19.7945C199.998 19.7945 182.517 19.636 160.864 19.736Z" fill="#F2F2F2"/>
<path d="M487.622 215.874H484.873V324.684H487.622V215.874Z" fill="#3F3D56"/>
<path d="M512.99 229.741C513.165 267.789 486.454 298.757 486.454 298.757C486.454 298.757 459.458 268.037 459.283 229.989C459.108 191.941 485.82 160.973 485.82 160.973C485.82 160.973 512.815 191.693 512.99 229.741Z" fill="#A6A1FF"/>
<path d="M386.443 258.027H414.185V251.317H429.49V258.027H458.188V287.745H429.49V325.132H414.185V287.745H386.443L372.094 271.448L386.443 258.027Z" fill="#3F3D56"/>
</g>
<defs>
<clipPath id="clip0">
<rect width="532" height="325" fill="white" transform="translate(0.583496 0.360962)"/>
</clipPath>
</defs>
</svg>
