<svg width="46" height="46" viewBox="0 0 46 46" fill="none" xmlns="http://www.w3.org/2000/svg">
<rect width="46" height="46" rx="6" fill="white"/>
<path d="M23.0001 17.7352C20.0865 17.7352 17.7352 20.0865 17.7352 23C17.7352 25.9135 20.0865 28.2648 23.0001 28.2648C25.9136 28.2648 28.2649 25.9135 28.2649 23C28.2649 20.0865 25.9136 17.7352 23.0001 17.7352ZM23.0001 26.4218C21.1159 26.4218 19.5783 24.8841 19.5783 23C19.5783 21.1158 21.1159 19.5782 23.0001 19.5782C24.8842 19.5782 26.4218 21.1158 26.4218 23C26.4218 24.8841 24.8842 26.4218 23.0001 26.4218ZM28.4805 16.2925C27.8003 16.2925 27.2509 16.8418 27.2509 17.5221C27.2509 18.2023 27.8003 18.7517 28.4805 18.7517C29.1608 18.7517 29.7101 18.2049 29.7101 17.5221C29.7103 17.3606 29.6786 17.2006 29.6169 17.0513C29.5552 16.902 29.4646 16.7664 29.3504 16.6522C29.2362 16.538 29.1006 16.4474 28.9513 16.3857C28.802 16.324 28.642 16.2923 28.4805 16.2925ZM33.2628 23C33.2628 21.583 33.2756 20.1789 33.196 18.7645C33.1165 17.1216 32.7417 15.6636 31.5403 14.4623C30.3364 13.2584 28.881 12.8862 27.2381 12.8066C25.8211 12.727 24.417 12.7398 23.0026 12.7398C21.5857 12.7398 20.1815 12.727 18.7671 12.8066C17.1243 12.8862 15.6662 13.2609 14.4649 14.4623C13.261 15.6662 12.8888 17.1216 12.8092 18.7645C12.7296 20.1815 12.7425 21.5856 12.7425 23C12.7425 24.4144 12.7296 25.8211 12.8092 27.2355C12.8888 28.8783 13.2636 30.3364 14.4649 31.5377C15.6688 32.7416 17.1243 33.1138 18.7671 33.1934C20.1841 33.273 21.5882 33.2602 23.0026 33.2602C24.4196 33.2602 25.8237 33.273 27.2381 33.1934C28.881 33.1138 30.339 32.7391 31.5403 31.5377C32.7442 30.3338 33.1165 28.8783 33.196 27.2355C33.2782 25.8211 33.2628 24.417 33.2628 23ZM31.0038 29.0529C30.8165 29.5201 30.5906 29.8692 30.2286 30.2286C29.8667 30.5905 29.5201 30.8164 29.053 31.0038C27.7027 31.5403 24.4966 31.4196 23.0001 31.4196C21.5035 31.4196 18.2948 31.5403 16.9446 31.0064C16.4774 30.819 16.1283 30.5931 15.7689 30.2311C15.407 29.8692 15.1811 29.5227 14.9937 29.0555C14.4598 27.7027 14.5804 24.4965 14.5804 23C14.5804 21.5035 14.4598 18.2947 14.9937 16.9445C15.1811 16.4773 15.407 16.1282 15.7689 15.7689C16.1309 15.4095 16.4774 15.181 16.9446 14.9936C18.2948 14.4597 21.5035 14.5804 23.0001 14.5804C24.4966 14.5804 27.7053 14.4597 29.0555 14.9936C29.5227 15.181 29.8718 15.4069 30.2312 15.7689C30.5931 16.1308 30.819 16.4773 31.0064 16.9445C31.5403 18.2947 31.4197 21.5035 31.4197 23C31.4197 24.4965 31.5403 27.7027 31.0038 29.0529Z" fill="#673AB7"/>
</svg>
