<svg width="199" height="72" viewBox="0 0 199 72" fill="none" xmlns="http://www.w3.org/2000/svg">
<path d="M1.776 39.656C1.776 37 2.32 34.648 3.408 32.6C4.528 30.552 6.032 28.968 7.92 27.848C9.84 26.696 11.968 26.12 14.304 26.12C16.032 26.12 17.728 26.504 19.392 27.272C21.088 28.008 22.432 29 23.424 30.248V17.48H28.944V53H23.424V49.016C22.528 50.296 21.28 51.352 19.68 52.184C18.112 53.016 16.304 53.432 14.256 53.432C11.952 53.432 9.84 52.856 7.92 51.704C6.032 50.52 4.528 48.888 3.408 46.808C2.32 44.696 1.776 42.312 1.776 39.656ZM23.424 39.752C23.424 37.928 23.04 36.344 22.272 35C21.536 33.656 20.56 32.632 19.344 31.928C18.128 31.224 16.816 30.872 15.408 30.872C14 30.872 12.688 31.224 11.472 31.928C10.256 32.6 9.264 33.608 8.496 34.952C7.76 36.264 7.392 37.832 7.392 39.656C7.392 41.48 7.76 43.08 8.496 44.456C9.264 45.832 10.256 46.888 11.472 47.624C12.72 48.328 14.032 48.68 15.408 48.68C16.816 48.68 18.128 48.328 19.344 47.624C20.56 46.92 21.536 45.896 22.272 44.552C23.04 43.176 23.424 41.576 23.424 39.752ZM60.0833 26.552V53H54.6113V49.88C53.7473 50.968 52.6113 51.832 51.2033 52.472C49.8273 53.08 48.3553 53.384 46.7873 53.384C44.7073 53.384 42.8353 52.952 41.1713 52.088C39.5393 51.224 38.2433 49.944 37.2833 48.248C36.3553 46.552 35.8913 44.504 35.8913 42.104V26.552H41.3153V41.288C41.3153 43.656 41.9073 45.48 43.0913 46.76C44.2753 48.008 45.8913 48.632 47.9393 48.632C49.9873 48.632 51.6033 48.008 52.7873 46.76C54.0033 45.48 54.6113 43.656 54.6113 41.288V26.552H60.0833ZM99.3191 26.12C101.399 26.12 103.255 26.552 104.887 27.416C106.551 28.28 107.847 29.56 108.775 31.256C109.735 32.952 110.215 35 110.215 37.4V53H104.791V38.216C104.791 35.848 104.199 34.04 103.015 32.792C101.831 31.512 100.215 30.872 98.1671 30.872C96.1191 30.872 94.4871 31.512 93.2711 32.792C92.0871 34.04 91.4951 35.848 91.4951 38.216V53H86.0711V38.216C86.0711 35.848 85.4791 34.04 84.2951 32.792C83.1111 31.512 81.4951 30.872 79.4471 30.872C77.3991 30.872 75.7671 31.512 74.5511 32.792C73.3671 34.04 72.7751 35.848 72.7751 38.216V53H67.3031V26.552H72.7751V29.576C73.6711 28.488 74.8071 27.64 76.1831 27.032C77.5591 26.424 79.0311 26.12 80.5991 26.12C82.7111 26.12 84.5991 26.568 86.2631 27.464C87.9271 28.36 89.2071 29.656 90.1031 31.352C90.9031 29.752 92.1511 28.488 93.8471 27.56C95.5431 26.6 97.3671 26.12 99.3191 26.12ZM127.642 39.8L139.834 53H132.442L122.65 41.624V53H117.178V17.48H122.65V38.12L132.25 26.552H139.834L127.642 39.8ZM141.932 39.656C141.932 37 142.476 34.648 143.564 32.6C144.684 30.552 146.188 28.968 148.076 27.848C149.996 26.696 152.108 26.12 154.412 26.12C156.492 26.12 158.3 26.536 159.836 27.368C161.404 28.168 162.652 29.176 163.58 30.392V26.552H169.1V53H163.58V49.064C162.652 50.312 161.388 51.352 159.788 52.184C158.188 53.016 156.364 53.432 154.316 53.432C152.044 53.432 149.964 52.856 148.076 51.704C146.188 50.52 144.684 48.888 143.564 46.808C142.476 44.696 141.932 42.312 141.932 39.656ZM163.58 39.752C163.58 37.928 163.196 36.344 162.428 35C161.692 33.656 160.716 32.632 159.5 31.928C158.284 31.224 156.972 30.872 155.564 30.872C154.156 30.872 152.844 31.224 151.628 31.928C150.412 32.6 149.42 33.608 148.652 34.952C147.916 36.264 147.548 37.832 147.548 39.656C147.548 41.48 147.916 43.08 148.652 44.456C149.42 45.832 150.412 46.888 151.628 47.624C152.876 48.328 154.188 48.68 155.564 48.68C156.972 48.68 158.284 48.328 159.5 47.624C160.716 46.92 161.692 45.896 162.428 44.552C163.196 43.176 163.58 41.576 163.58 39.752ZM185.264 19.16C188.528 19.16 191.136 20.056 193.088 21.848C195.072 23.64 196.064 26.088 196.064 29.192C196.064 32.424 195.04 34.856 192.992 36.488C190.944 38.12 188.224 38.936 184.832 38.936L184.64 42.728H179.888L179.648 35.192H181.232C184.336 35.192 186.704 34.776 188.336 33.944C190 33.112 190.832 31.528 190.832 29.192C190.832 27.496 190.336 26.168 189.344 25.208C188.384 24.248 187.04 23.768 185.312 23.768C183.584 23.768 182.224 24.232 181.232 25.16C180.24 26.088 179.743 27.384 179.743 29.048H174.608C174.608 27.128 175.04 25.416 175.904 23.912C176.768 22.408 178 21.24 179.6 20.408C181.232 19.576 183.12 19.16 185.264 19.16ZM182.192 53.336C181.2 53.336 180.368 53 179.696 52.328C179.024 51.656 178.688 50.824 178.688 49.832C178.688 48.84 179.024 48.008 179.696 47.336C180.368 46.664 181.2 46.328 182.192 46.328C183.152 46.328 183.968 46.664 184.64 47.336C185.312 48.008 185.648 48.84 185.648 49.832C185.648 50.824 185.312 51.656 184.64 52.328C183.968 53 183.152 53.336 182.192 53.336Z" fill="#673AB7"/>
<circle cx="182.156" cy="49.7998" r="3.53411" fill="#FF6129"/>
</svg>
