<svg width="537" height="423" viewBox="0 0 537 423" fill="none" xmlns="http://www.w3.org/2000/svg">
<path d="M264.275 96.1076H262.054V35.2328C262.054 25.8885 258.344 16.9269 251.74 10.3194C245.136 3.71203 236.18 1.16516e-05 226.841 2.23609e-10H97.9408C93.3165 -1.64832e-05 88.7375 0.911289 84.4653 2.68188C80.193 4.45248 76.3112 7.04769 73.0413 10.3193C69.7715 13.591 67.1777 17.475 65.408 21.7496C63.6384 26.0242 62.7276 30.6058 62.7275 35.2326V369.197C62.7275 373.824 63.6383 378.405 65.4079 382.68C67.1776 386.955 69.7714 390.839 73.0412 394.11C76.311 397.382 80.1929 399.977 84.4651 401.748C88.7374 403.518 93.3163 404.43 97.9406 404.43H226.84C231.465 404.43 236.044 403.518 240.316 401.748C244.588 399.977 248.47 397.382 251.74 394.11C255.01 390.839 257.604 386.955 259.373 382.68C261.143 378.405 262.054 373.824 262.054 369.197V139.439H264.275V96.1076Z" fill="#3F3D56"/>
<path d="M227.996 9.99976H211.17C211.944 11.8978 212.24 13.9572 212.031 15.9964C211.821 18.0356 211.114 19.9921 209.972 21.6935C208.829 23.3949 207.285 24.789 205.477 25.7529C203.669 26.7169 201.652 27.2212 199.603 27.2214H125.758C123.709 27.2212 121.692 26.7169 119.884 25.7529C118.076 24.789 116.532 23.3949 115.39 21.6935C114.247 19.9921 113.54 18.0356 113.331 15.9964C113.122 13.9572 113.417 11.8978 114.191 9.99976H98.4755C91.5012 9.99975 84.8125 12.7718 79.8809 17.7062C74.9493 22.6405 72.1787 29.3329 72.1787 36.3111V369.785C72.1787 373.241 72.8589 376.662 74.1804 379.854C75.502 383.047 77.439 385.947 79.8808 388.39C82.3227 390.834 85.2217 392.772 88.4121 394.094C91.6026 395.416 95.0221 396.097 98.4755 396.097H227.996C234.97 396.097 241.659 393.325 246.591 388.39C251.522 383.456 254.293 376.764 254.293 369.785V36.3112C254.293 32.8559 253.613 29.4345 252.291 26.2422C250.97 23.05 249.033 20.1494 246.591 17.7062C244.149 15.2629 241.25 13.3249 238.059 12.0026C234.869 10.6803 231.449 9.99976 227.996 9.99976H227.996ZM225.169 164.701C225.164 166.507 224.445 168.237 223.168 169.514C221.892 170.791 220.163 171.511 218.358 171.516H185.436C183.631 171.511 181.902 170.791 180.626 169.514C179.349 168.237 178.63 166.507 178.625 164.701V162.997C178.63 161.191 179.349 159.461 180.626 158.184C181.902 156.907 183.631 156.187 185.436 156.182H218.358C220.163 156.187 221.892 156.907 223.168 158.184C224.445 159.461 225.164 161.191 225.169 162.997V164.701ZM228.859 134.6C228.854 136.406 228.134 138.136 226.858 139.413C225.582 140.69 223.852 141.41 222.047 141.415H103.983C102.178 141.41 100.449 140.69 99.1726 139.413C97.8964 138.136 97.177 136.406 97.1718 134.6V132.896C97.177 131.09 97.8964 129.36 99.1726 128.083C100.449 126.806 102.178 126.086 103.983 126.081H222.047C223.852 126.086 225.582 126.806 226.858 128.083C228.134 129.36 228.854 131.09 228.859 132.896V134.6ZM228.859 104.5C228.854 106.306 228.134 108.036 226.858 109.313C225.582 110.59 223.852 111.31 222.047 111.315H103.983C102.178 111.31 100.449 110.59 99.1726 109.313C97.8964 108.036 97.177 106.306 97.1718 104.5V102.796C97.177 100.99 97.8964 99.2597 99.1726 97.9827C100.449 96.7057 102.178 95.986 103.983 95.9807H222.047C223.852 95.986 225.582 96.7057 226.858 97.9827C228.134 99.2597 228.854 100.99 228.859 102.796V104.5ZM228.859 74.3993C228.854 76.2052 228.134 77.9356 226.858 79.2125C225.582 80.4895 223.852 81.2092 222.047 81.2145H103.983C102.178 81.2092 100.449 80.4895 99.1726 79.2125C97.8964 77.9356 97.177 76.2052 97.1718 74.3993V72.6955C97.177 70.8896 97.8964 69.1592 99.1726 67.8823C100.449 66.6053 102.178 65.8856 103.983 65.8803H222.047C223.852 65.8856 225.582 66.6053 226.858 67.8823C228.134 69.1592 228.854 70.8896 228.859 72.6955V74.3993Z" fill="white"/>
<path d="M106.538 138.008C108.732 138.008 110.511 136.228 110.511 134.032C110.511 131.837 108.732 130.057 106.538 130.057C104.343 130.057 102.564 131.837 102.564 134.032C102.564 136.228 104.343 138.008 106.538 138.008Z" fill="white"/>
<path d="M119.593 138.008C121.787 138.008 123.566 136.228 123.566 134.032C123.566 131.837 121.787 130.057 119.593 130.057C117.398 130.057 115.619 131.837 115.619 134.032C115.619 136.228 117.398 138.008 119.593 138.008Z" fill="white"/>
<path d="M132.648 138.008C134.842 138.008 136.621 136.228 136.621 134.032C136.621 131.837 134.842 130.057 132.648 130.057C130.453 130.057 128.675 131.837 128.675 134.032C128.675 136.228 130.453 138.008 132.648 138.008Z" fill="white"/>
<path d="M145.703 138.008C147.897 138.008 149.676 136.228 149.676 134.032C149.676 131.837 147.897 130.057 145.703 130.057C143.509 130.057 141.73 131.837 141.73 134.032C141.73 136.228 143.509 138.008 145.703 138.008Z" fill="white"/>
<path d="M188.274 168.108C190.469 168.108 192.248 166.328 192.248 164.133C192.248 161.937 190.469 160.157 188.274 160.157C186.08 160.157 184.301 161.937 184.301 164.133C184.301 166.328 186.08 168.108 188.274 168.108Z" fill="white"/>
<path d="M201.33 168.108C203.524 168.108 205.303 166.328 205.303 164.133C205.303 161.937 203.524 160.157 201.33 160.157C199.135 160.157 197.356 161.937 197.356 164.133C197.356 166.328 199.135 168.108 201.33 168.108Z" fill="white"/>
<path d="M214.385 168.108C216.579 168.108 218.358 166.328 218.358 164.133C218.358 161.937 216.579 160.157 214.385 160.157C212.19 160.157 210.411 161.937 210.411 164.133C210.411 166.328 212.19 168.108 214.385 168.108Z" fill="white"/>
<path d="M229.772 215.643H95.1231C91.9597 215.643 88.9259 216.9 86.689 219.138C84.4522 221.376 83.1956 224.412 83.1956 227.577V293.217C83.1956 296.382 84.4522 299.418 86.689 301.656C88.9259 303.894 91.9597 305.151 95.1231 305.151H229.772C232.936 305.151 235.969 303.894 238.206 301.656C240.443 299.418 241.7 296.382 241.7 293.217V227.577C241.7 224.412 240.443 221.376 238.206 219.138C235.969 216.9 232.936 215.643 229.772 215.643H229.772ZM91.7917 223.784C92.0576 223.736 98.3626 222.662 103.583 225.805C108.804 228.948 110.81 235.025 110.893 235.282L111.104 235.937L110.426 236.058C109.46 236.209 108.482 236.28 107.504 236.272C104.401 236.332 101.338 235.559 98.634 234.035C93.4135 230.893 91.4079 224.816 91.3252 224.559L91.1141 223.904L91.7917 223.784ZM121.02 284.727H97.0046C95.2531 284.727 93.5732 284.03 92.3347 282.791C91.0961 281.552 90.4003 279.871 90.4003 278.119C90.4003 276.366 91.0961 274.685 92.3347 273.446C93.5732 272.207 95.2531 271.511 97.0046 271.511H121.02C122.772 271.511 124.452 272.207 125.69 273.446C126.929 274.685 127.625 276.366 127.625 278.119C127.625 279.871 126.929 281.552 125.69 282.791C124.452 284.03 122.772 284.727 121.02 284.727ZM230.292 283.525C230.287 285.435 229.526 287.266 228.176 288.616C226.826 289.967 224.997 290.728 223.087 290.734H205.076C203.167 290.728 201.337 289.967 199.987 288.616C198.637 287.266 197.877 285.435 197.871 283.525V272.712C197.877 270.802 198.637 268.972 199.987 267.621C201.337 266.27 203.167 265.509 205.076 265.503H223.087C224.997 265.509 226.826 266.27 228.176 267.621C229.526 268.972 230.287 270.802 230.292 272.712L230.292 283.525Z" fill="#6C63FF"/>
<path d="M210.883 281.297H203.641C203.124 281.297 202.628 281.502 202.262 281.868C201.897 282.234 201.691 282.73 201.691 283.248C201.691 283.765 201.897 284.261 202.262 284.627C202.628 284.993 203.124 285.199 203.641 285.199H210.883C211.4 285.199 211.896 284.993 212.262 284.627C212.628 284.261 212.833 283.765 212.833 283.248C212.833 282.73 212.628 282.234 212.262 281.868C211.896 281.502 211.4 281.297 210.883 281.297Z" fill="#3F3D56"/>
<path d="M224.253 281.297H217.011C216.494 281.297 215.998 281.502 215.632 281.868C215.267 282.234 215.061 282.73 215.061 283.248C215.061 283.765 215.267 284.261 215.632 284.627C215.998 284.993 216.494 285.199 217.011 285.199H224.253C224.77 285.199 225.266 284.993 225.632 284.627C225.997 284.261 226.203 283.765 226.203 283.248C226.203 282.73 225.997 282.234 225.632 281.868C225.266 281.502 224.77 281.297 224.253 281.297Z" fill="#3F3D56"/>
<path d="M210.882 275.79H203.64C203.123 275.79 202.627 275.996 202.261 276.361C201.896 276.727 201.69 277.224 201.69 277.741C201.69 278.258 201.896 278.755 202.261 279.12C202.627 279.486 203.123 279.692 203.64 279.692H210.882C211.399 279.692 211.895 279.486 212.261 279.12C212.626 278.755 212.832 278.258 212.832 277.741C212.832 277.224 212.626 276.727 212.261 276.361C211.895 275.996 211.399 275.79 210.882 275.79Z" fill="#3F3D56"/>
<path d="M224.252 275.79H217.01C216.493 275.79 215.997 275.996 215.631 276.361C215.265 276.727 215.06 277.224 215.06 277.741C215.06 278.258 215.265 278.755 215.631 279.12C215.997 279.486 216.493 279.692 217.01 279.692H224.252C224.769 279.692 225.265 279.486 225.631 279.12C225.996 278.755 226.202 278.258 226.202 277.741C226.202 277.224 225.996 276.727 225.631 276.361C225.265 275.996 224.769 275.79 224.252 275.79H224.252Z" fill="#3F3D56"/>
<path d="M210.882 270.395H203.64C203.123 270.395 202.627 270.6 202.261 270.966C201.896 271.332 201.69 271.828 201.69 272.345C201.69 272.863 201.896 273.359 202.261 273.725C202.627 274.091 203.123 274.296 203.64 274.296H210.882C211.399 274.296 211.895 274.091 212.261 273.725C212.626 273.359 212.832 272.863 212.832 272.345C212.832 271.828 212.626 271.332 212.261 270.966C211.895 270.6 211.399 270.395 210.882 270.395Z" fill="#3F3D56"/>
<path d="M224.252 270.395H217.01C216.493 270.395 215.997 270.6 215.631 270.966C215.265 271.332 215.06 271.828 215.06 272.345C215.06 272.863 215.265 273.359 215.631 273.725C215.997 274.091 216.493 274.296 217.01 274.296H224.252C224.769 274.296 225.265 274.091 225.631 273.725C225.996 273.359 226.202 272.863 226.202 272.345C226.202 271.828 225.996 271.332 225.631 270.966C225.265 270.6 224.769 270.395 224.252 270.395H224.252Z" fill="#3F3D56"/>
<path d="M323.032 240.369H305.469V257.942H323.032V240.369Z" fill="#E6E6E6"/>
<path d="M284.77 251.039H313.624V279.908H284.77V251.039ZM312.369 252.294H286.025V278.653H312.369V252.294Z" fill="#3F3D56"/>
<path d="M17.5629 95.3948H0V112.967H17.5629V95.3948Z" fill="#E6E6E6"/>
<path d="M38.2621 102.298H9.40869V73.4287H38.2621V102.298ZM10.6632 101.043H37.0076V74.6839H10.6632V101.043Z" fill="#3F3D56"/>
<path d="M409.641 415.103H401.951L398.292 385.425H409.642L409.641 415.103Z" fill="#FFB8B8"/>
<path d="M396.458 412.904H411.288V422.247H387.12C387.12 419.769 388.104 417.393 389.855 415.641C391.606 413.889 393.981 412.904 396.458 412.904Z" fill="#2F2E41"/>
<path d="M447.903 415.103H440.213L436.554 385.425H447.904L447.903 415.103Z" fill="#FFB8B8"/>
<path d="M434.72 412.904H449.55V422.247H425.382C425.382 419.769 426.366 417.393 428.117 415.641C429.868 413.889 432.243 412.904 434.72 412.904Z" fill="#2F2E41"/>
<path d="M371.064 308.968C370.511 308.152 370.143 307.225 369.987 306.252C369.83 305.279 369.889 304.283 370.159 303.335C370.429 302.387 370.903 301.51 371.548 300.765C372.193 300.021 372.994 299.426 373.894 299.025L400.035 226.935L412.898 233.958L383.05 302.85C383.624 304.407 383.608 306.121 383.004 307.666C382.4 309.212 381.25 310.482 379.773 311.236C378.296 311.99 376.593 312.175 374.988 311.757C373.383 311.339 371.987 310.347 371.064 308.968Z" fill="#FFB8B8"/>
<path d="M443.975 322.514C443.12 322.024 442.383 321.352 441.816 320.546C441.249 319.74 440.866 318.819 440.693 317.849C440.52 316.879 440.561 315.882 440.815 314.93C441.068 313.977 441.528 313.092 442.16 312.336L434.062 236.078L448.7 236.747L452.066 311.757C453.264 312.905 454 314.452 454.135 316.106C454.269 317.76 453.793 319.406 452.795 320.732C451.798 322.057 450.349 322.971 448.723 323.3C447.098 323.628 445.408 323.349 443.975 322.514V322.514Z" fill="#FFB8B8"/>
<path d="M420.622 213.582C429.13 213.582 436.028 206.681 436.028 198.168C436.028 189.654 429.13 182.753 420.622 182.753C412.113 182.753 405.216 189.654 405.216 198.168C405.216 206.681 412.113 213.582 420.622 213.582Z" fill="#FFB8B8"/>
<path d="M443.876 305.17H397.431L397.487 304.809C397.57 304.268 405.764 250.56 399.721 232.989C399.114 231.262 399.168 229.372 399.87 227.683C400.573 225.993 401.876 224.623 403.528 223.837H403.528C412.166 219.766 428.748 214.755 442.743 226.918C444.803 228.737 446.411 231.011 447.441 233.559C448.471 236.107 448.894 238.861 448.677 241.601L443.876 305.17Z" fill="#CCCCCC"/>
<path d="M406.351 258.497L385.441 254.253L395.242 231.013C395.829 228.762 397.284 226.836 399.288 225.657C401.292 224.477 403.682 224.142 405.933 224.723C408.184 225.305 410.113 226.756 411.296 228.758C412.479 230.761 412.82 233.151 412.244 235.405L406.351 258.497Z" fill="#CCCCCC"/>
<path d="M433.132 266.378L431.875 237.546C430.922 232.126 434.023 227.002 438.792 226.164C443.562 225.33 448.221 229.089 449.178 234.549L453.903 261.49L433.132 266.378Z" fill="#CCCCCC"/>
<path d="M442.331 301.719C449.805 330.197 450.62 366.404 448.604 405.899L438.568 404.644L420.378 329.333L410.342 405.899L399.051 405.272C395.678 363.832 392.394 328.256 397.797 304.856L442.331 301.719Z" fill="#2F2E41"/>
<path d="M430.773 210.08C427.899 213.143 422.561 211.499 422.187 207.314C422.158 206.989 422.16 206.662 422.193 206.338C422.387 204.484 423.457 202.801 423.201 200.844C423.143 200.357 422.961 199.893 422.674 199.496C420.383 196.427 415.007 200.868 412.846 198.09C411.52 196.387 413.078 193.705 412.061 191.801C410.719 189.289 406.743 190.528 404.25 189.152C401.476 187.621 401.641 183.362 403.468 180.772C405.695 177.613 409.599 175.927 413.455 175.684C417.312 175.441 421.141 176.484 424.741 177.888C428.831 179.483 432.888 181.687 435.405 185.286C438.466 189.662 438.76 195.546 437.229 200.663C436.298 203.776 433.12 207.579 430.773 210.08Z" fill="#2F2E41"/>
<path d="M536.373 423H297.392C297.225 423 297.066 422.934 296.948 422.816C296.83 422.699 296.764 422.539 296.764 422.372C296.764 422.206 296.83 422.046 296.948 421.929C297.066 421.811 297.225 421.745 297.392 421.745H536.373C536.539 421.745 536.699 421.811 536.816 421.929C536.934 422.046 537 422.206 537 422.372C537 422.539 536.934 422.699 536.816 422.816C536.699 422.934 536.539 423 536.373 423Z" fill="white"/>
</svg>
